<svg id="Decorative_icon" data-name="Decorative icon" xmlns="http://www.w3.org/2000/svg" width="18" height="18" viewBox="0 0 18 18">
  <rect id="Placement_Area" data-name="Placement Area" width="18" height="18" fill="eb3c36" opacity="0"/>
  <g id="Icon">
    <rect id="Canvas" width="18" height="18" fill="#eb3c36" opacity="0"/>
    <path id="Path_5" data-name="Path 5" d="M8.564,1.289.2,16.256A.5.5,0,0,0,.636,17H17.364a.5.5,0,0,0,.436-.744L9.436,1.289a.5.5,0,0,0-.873,0ZM10,14.75a.25.25,0,0,1-.25.25H8.25A.25.25,0,0,1,8,14.75v-1.5A.25.25,0,0,1,8.25,13h1.5a.25.25,0,0,1,.25.25Zm0-3a.25.25,0,0,1-.25.25H8.25A.25.25,0,0,1,8,11.75v-6a.25.25,0,0,1,.25-.25h1.5a.25.25,0,0,1,.25.25Z" fill="#eb3c36"/>
  </g>
</svg>
